<?xml version="1.0" standalone="no"?>
<!DOCTYPE svg PUBLIC "-//W3C//DTD SVG 20010904//EN"
 "http://www.w3.org/TR/2001/REC-SVG-20010904/DTD/svg10.dtd">
<svg version="1.0" xmlns="http://www.w3.org/2000/svg"
 width="24.000000pt" height="50.000000pt" viewBox="0 0 24.000000 50.000000"
 preserveAspectRatio="xMidYMid meet">

<g transform="translate(0.000000,50.000000) scale(0.100000,-0.100000)"
fill="#000000" stroke="none">
<path d="M115 366 c-58 -17 -61 -19 -37 -23 18 -4 22 -11 22 -39 0 -30 -3 -34
-25 -34 -14 0 -25 -4 -25 -10 0 -5 11 -10 25 -10 22 0 25 -4 25 -36 0 -27 -5
-37 -20 -41 -36 -9 -10 -23 44 -23 63 0 71 5 45 31 -26 26 -21 63 9 67 12 2
22 7 22 12 0 5 -10 10 -22 12 -20 3 -24 11 -28 53 l-5 51 -30 -10z"/>
</g>
</svg>
