<?xml version="1.0" standalone="no"?>
<!DOCTYPE svg PUBLIC "-//W3C//DTD SVG 20010904//EN"
 "http://www.w3.org/TR/2001/REC-SVG-20010904/DTD/svg10.dtd">
<svg version="1.0" xmlns="http://www.w3.org/2000/svg"
 width="24.000000pt" height="50.000000pt" viewBox="0 0 24.000000 50.000000"
 preserveAspectRatio="xMidYMid meet">

<g transform="translate(0.000000,50.000000) scale(0.100000,-0.100000)"
fill="#000000" stroke="none">
<path d="M68 423 c34 -2 88 -2 120 0 31 2 3 3 -63 3 -66 0 -92 -1 -57 -3z"/>
<path d="M58 403 c34 -2 90 -2 125 0 34 2 6 3 -63 3 -69 0 -97 -1 -62 -3z"/>
<path d="M78 359 c-22 -12 -24 -55 -4 -62 23 -9 41 20 25 39 -11 14 -10 15 11
12 30 -4 40 -47 16 -70 -29 -29 -66 -91 -66 -110 0 -17 7 -19 63 -16 l62 3 3
35 c3 28 1 33 -9 23 -7 -7 -31 -13 -54 -13 l-40 1 30 25 c17 14 40 33 53 44
27 22 29 61 4 83 -21 19 -68 22 -94 6z"/>
<path d="M68 103 c34 -2 88 -2 120 0 31 2 3 3 -63 3 -66 0 -92 -1 -57 -3z"/>
<path d="M58 83 c34 -2 90 -2 125 0 34 2 6 3 -63 3 -69 0 -97 -1 -62 -3z"/>
</g>
</svg>
