<?xml version="1.0" standalone="no"?>
<!DOCTYPE svg PUBLIC "-//W3C//DTD SVG 20010904//EN"
 "http://www.w3.org/TR/2001/REC-SVG-20010904/DTD/svg10.dtd">
<svg version="1.0" xmlns="http://www.w3.org/2000/svg"
 width="25.000000pt" height="50.000000pt" viewBox="0 0 25.000000 50.000000"
 preserveAspectRatio="xMidYMid meet">

<g transform="translate(0.000000,50.000000) scale(0.100000,-0.100000)"
fill="#000000" stroke="none">
<path d="M83 336 c-26 -23 -27 -26 -11 -42 21 -22 41 -9 33 23 -5 20 -2 24 12
21 13 -2 18 -13 18 -38 0 -33 -2 -35 -37 -38 -42 -4 -53 -22 -13 -22 14 0 25
-2 25 -5 0 -2 -11 -21 -25 -41 -14 -20 -25 -41 -25 -45 0 -5 29 -9 64 -9 57 0
64 2 70 22 6 25 -8 46 -18 29 -9 -13 -63 -15 -70 -2 -9 14 57 51 90 51 26 1
27 2 12 14 -11 8 -18 26 -18 44 0 21 -7 36 -22 46 -31 22 -52 20 -85 -8z"/>
</g>
</svg>
